<svg version="1.2" baseProfile="tiny-ps" xmlns="http://www.w3.org/2000/svg" viewBox="0 0 209 211" width="209" height="211">
	<title>layer1</title>
	<style>
		tspan { white-space:pre }
		.shp0 { fill:#a5a5a5 } 
		.shp1 { fill: #a5a5a5 } 
	</style>
	<g id="layer1">
		<g id="g5555">
			<path id="path5528" class="shp0" d="M103.04 5.08C48.41 5.08 4.12 49.89 4.12 105.17C4.12 116.4 5.95 127.21 9.32 137.29C7.08 128.83 5.88 119.86 5.88 110.58C5.88 59.28 42.66 17.7 88.02 17.7C133.38 17.7 170.15 59.28 170.15 110.58C170.15 161.88 133.38 203.47 88.02 203.47C86.5 203.47 85.01 203.42 83.51 203.33C89.83 204.61 96.35 205.28 103.04 205.28C157.67 205.28 201.95 160.46 201.95 105.17C201.95 49.89 157.67 5.08 103.04 5.08L103.04 5.08Z" />
			<path id="path5526" fill-rule="evenodd" class="shp1" d="M103.04 0.45C173.9 -4.82 234.68 87.24 196.72 151.08C168.79 202.68 97.35 229.12 46.87 195.6C11.95 176.79 -5.11 134.08 1.34 95.18C7.23 44.84 50.27 -5.25 103.04 0.44L103.04 0.45ZM103.04 9.72C81.5 8.61 60.11 16.63 43.07 29.85C4.77 56.29 0.42 112.93 22.92 151.37C43.36 192.25 93.49 212.51 135.9 197.91C180.78 186.23 202.06 133.74 193.56 90.22C188.39 45.77 148.89 3.92 103.04 9.72L103.04 9.72Z" />
		</g>
	</g>
</svg>